<?xml version="1.0" encoding="UTF-8" standalone="no"?>
<!DOCTYPE svg PUBLIC "-//W3C//DTD SVG 1.1//EN"
 "http://www.w3.org/Graphics/SVG/1.1/DTD/svg11.dtd">
<!-- Generated by graphviz version 15.1.0 (20260618.0150)
 -->
<!-- Title: SDD Pages: 1 -->
<svg width="2003pt" height="756pt"
 viewBox="0.00 0.00 2003.00 756.00" xmlns="http://www.w3.org/2000/svg" xmlns:xlink="http://www.w3.org/1999/xlink">
<g id="graph0" class="graph" transform="scale(1 1) rotate(0) translate(4 752.01)">
<title>SDD</title>
<g id="clust1" class="cluster">
<title>cluster_global</title>
<path fill="none" stroke="#94a3b8" stroke-dasharray="5,2" d="M818.28,-475.96C818.28,-475.96 1025.28,-475.96 1025.28,-475.96 1031.28,-475.96 1037.28,-481.96 1037.28,-487.96 1037.28,-487.96 1037.28,-588.66 1037.28,-588.66 1037.28,-594.66 1031.28,-600.66 1025.28,-600.66 1025.28,-600.66 818.28,-600.66 818.28,-600.66 812.28,-600.66 806.28,-594.66 806.28,-588.66 806.28,-588.66 806.28,-487.96 806.28,-487.96 806.28,-481.96 812.28,-475.96 818.28,-475.96"/>
<text xml:space="preserve" text-anchor="middle" x="921.78" y="-583.36" font-family="Inter,Helvetica,sans-serif" font-size="14.00" fill="#475569">Global Context &amp; Grounding</text>
</g>
<g id="clust2" class="cluster">
<title>cluster_p1</title>
<path fill="#f8fafc" stroke="#cbd5e1" d="M1559.28,-326.2C1559.28,-326.2 1975.28,-326.2 1975.28,-326.2 1981.28,-326.2 1987.28,-332.2 1987.28,-338.2 1987.28,-338.2 1987.28,-728.01 1987.28,-728.01 1987.28,-734.01 1981.28,-740.01 1975.28,-740.01 1975.28,-740.01 1559.28,-740.01 1559.28,-740.01 1553.28,-740.01 1547.28,-734.01 1547.28,-728.01 1547.28,-728.01 1547.28,-338.2 1547.28,-338.2 1547.28,-332.2 1553.28,-326.2 1559.28,-326.2"/>
<text xml:space="preserve" text-anchor="middle" x="1767.28" y="-722.71" font-family="Inter,Helvetica,sans-serif" font-size="14.00">Phase 1: Intent Refinement</text>
</g>
<g id="clust3" class="cluster">
<title>cluster_p2</title>
<path fill="#f8fafc" stroke="#cbd5e1" d="M760.28,-8C760.28,-8 1527.28,-8 1527.28,-8 1533.28,-8 1539.28,-14 1539.28,-20 1539.28,-20 1539.28,-422.76 1539.28,-422.76 1539.28,-428.76 1533.28,-434.76 1527.28,-434.76 1527.28,-434.76 760.28,-434.76 760.28,-434.76 754.28,-434.76 748.28,-428.76 748.28,-422.76 748.28,-422.76 748.28,-20 748.28,-20 748.28,-14 754.28,-8 760.28,-8"/>
<text xml:space="preserve" text-anchor="middle" x="1143.78" y="-417.46" font-family="Inter,Helvetica,sans-serif" font-size="14.00">Phase 2: Multi&#45;View Translation</text>
</g>
<g id="clust6" class="cluster">
<title>cluster_p3</title>
<path fill="#f8fafc" stroke="#cbd5e1" d="M371.28,-118.06C371.28,-118.06 664.28,-118.06 664.28,-118.06 670.28,-118.06 676.28,-124.06 676.28,-130.06 676.28,-130.06 676.28,-422.76 676.28,-422.76 676.28,-428.76 670.28,-434.76 664.28,-434.76 664.28,-434.76 371.28,-434.76 371.28,-434.76 365.28,-434.76 359.28,-428.76 359.28,-422.76 359.28,-422.76 359.28,-130.06 359.28,-130.06 359.28,-124.06 365.28,-118.06 371.28,-118.06"/>
<text xml:space="preserve" text-anchor="middle" x="517.78" y="-417.46" font-family="Inter,Helvetica,sans-serif" font-size="14.00">Phase 3: Execution</text>
</g>
<g id="clust7" class="cluster">
<title>cluster_p4</title>
<path fill="#f8fafc" stroke="#cbd5e1" d="M28.28,-8C28.28,-8 249.28,-8 249.28,-8 255.28,-8 261.28,-14 261.28,-20 261.28,-20 261.28,-432.21 261.28,-432.21 261.28,-438.21 255.28,-444.21 249.28,-444.21 249.28,-444.21 28.28,-444.21 28.28,-444.21 22.28,-444.21 16.28,-438.21 16.28,-432.21 16.28,-432.21 16.28,-20 16.28,-20 16.28,-14 22.28,-8 28.28,-8"/>
<text xml:space="preserve" text-anchor="middle" x="138.78" y="-426.91" font-family="Inter,Helvetica,sans-serif" font-size="14.00">Phase 4: Sync &amp; Drift Management</text>
</g>
<!-- repo_spec -->
<g id="node1" class="node">
<title>repo_spec</title>
<path fill="#fef08a" stroke="black" stroke-width="0" d="M900.56,-540.96C900.56,-544.1 881.16,-546.66 857.28,-546.66 833.4,-546.66 814.01,-544.1 814.01,-540.96 814.01,-540.96 814.01,-489.66 814.01,-489.66 814.01,-486.51 833.4,-483.96 857.28,-483.96 881.16,-483.96 900.56,-486.51 900.56,-489.66 900.56,-489.66 900.56,-540.96 900.56,-540.96"/>
<path fill="none" stroke="black" stroke-width="0" d="M900.56,-540.96C900.56,-537.81 881.16,-535.26 857.28,-535.26 833.4,-535.26 814.01,-537.81 814.01,-540.96"/>
<text xml:space="preserve" text-anchor="middle" x="857.28" y="-516.86" font-family="Inter,Helvetica,sans-serif" font-size="11.00">Repo Spec</text>
<text xml:space="preserve" text-anchor="middle" x="857.28" y="-504.86" font-family="Inter,Helvetica,sans-serif" font-size="11.00">(agents.md)</text>
</g>
<!-- intent_agent -->
<g id="node5" class="node">
<title>intent_agent</title>
<path fill="#bae6fd" stroke="black" stroke-width="0" d="M1688.31,-538.11C1688.31,-538.11 1618.26,-538.11 1618.26,-538.11 1612.26,-538.11 1606.26,-532.11 1606.26,-526.11 1606.26,-526.11 1606.26,-504.51 1606.26,-504.51 1606.26,-498.51 1612.26,-492.51 1618.26,-492.51 1618.26,-492.51 1688.31,-492.51 1688.31,-492.51 1694.31,-492.51 1700.31,-498.51 1700.31,-504.51 1700.31,-504.51 1700.31,-526.11 1700.31,-526.11 1700.31,-532.11 1694.31,-538.11 1688.31,-538.11"/>
<text xml:space="preserve" text-anchor="middle" x="1653.28" y="-516.86" font-family="Inter,Helvetica,sans-serif" font-size="11.00">Intent Refiner</text>
<text xml:space="preserve" text-anchor="middle" x="1653.28" y="-504.86" font-family="Inter,Helvetica,sans-serif" font-size="11.00">Agent</text>
</g>
<!-- repo_spec&#45;&gt;intent_agent -->
<g id="edge25" class="edge">
<title>repo_spec&#45;&gt;intent_agent</title>
<path fill="none" stroke="#94a3b8" d="M870.88,-546.63C880.31,-564.11 894.7,-584.35 914.28,-594.37 965.71,-620.69 986.62,-598.1 1044.28,-594.37 1249.65,-581.09 1491.54,-542.89 1598.13,-524.9"/>
<polygon fill="#94a3b8" stroke="#94a3b8" points="1598.51,-527.32 1605,-523.73 1597.69,-522.49 1598.51,-527.32"/>
<text xml:space="preserve" text-anchor="middle" x="1364.28" y="-609.86" font-family="Inter,Helvetica,sans-serif" font-size="9.00">Grounding</text>
</g>
<!-- spec_writer -->
<g id="node8" class="node">
<title>spec_writer</title>
<path fill="#bae6fd" stroke="black" stroke-width="0" d="M1237.18,-380.76C1237.18,-380.76 1175.38,-380.76 1175.38,-380.76 1169.38,-380.76 1163.38,-374.76 1163.38,-368.76 1163.38,-368.76 1163.38,-347.16 1163.38,-347.16 1163.38,-341.16 1169.38,-335.16 1175.38,-335.16 1175.38,-335.16 1237.18,-335.16 1237.18,-335.16 1243.18,-335.16 1249.18,-341.16 1249.18,-347.16 1249.18,-347.16 1249.18,-368.76 1249.18,-368.76 1249.18,-374.76 1243.18,-380.76 1237.18,-380.76"/>
<text xml:space="preserve" text-anchor="middle" x="1206.28" y="-359.51" font-family="Inter,Helvetica,sans-serif" font-size="11.00">Spec Writer</text>
<text xml:space="preserve" text-anchor="middle" x="1206.28" y="-347.51" font-family="Inter,Helvetica,sans-serif" font-size="11.00">Agent</text>
</g>
<!-- repo_spec&#45;&gt;spec_writer -->
<g id="edge30" class="edge">
<title>repo_spec&#45;&gt;spec_writer</title>
<path fill="none" stroke="#94a3b8" d="M896.8,-486.18C902.55,-482.54 908.48,-479.02 914.28,-475.96 995.59,-432.94 1096.31,-395.88 1155.7,-375.56"/>
<polygon fill="#94a3b8" stroke="#94a3b8" points="1156.18,-377.99 1162.01,-373.41 1154.6,-373.35 1156.18,-377.99"/>
<text xml:space="preserve" text-anchor="middle" x="982.09" y="-453.41" font-family="Inter,Helvetica,sans-serif" font-size="9.00">Grounding</text>
</g>
<!-- coder -->
<g id="node19" class="node">
<title>coder</title>
<path fill="#bae6fd" stroke="black" stroke-width="0" d="M605.68,-380.76C605.68,-380.76 570.88,-380.76 570.88,-380.76 564.88,-380.76 558.88,-374.76 558.88,-368.76 558.88,-368.76 558.88,-347.16 558.88,-347.16 558.88,-341.16 564.88,-335.16 570.88,-335.16 570.88,-335.16 605.68,-335.16 605.68,-335.16 611.68,-335.16 617.68,-341.16 617.68,-347.16 617.68,-347.16 617.68,-368.76 617.68,-368.76 617.68,-374.76 611.68,-380.76 605.68,-380.76"/>
<text xml:space="preserve" text-anchor="middle" x="588.28" y="-359.51" font-family="Inter,Helvetica,sans-serif" font-size="11.00">Coder</text>
<text xml:space="preserve" text-anchor="middle" x="588.28" y="-347.51" font-family="Inter,Helvetica,sans-serif" font-size="11.00">Agent</text>
</g>
<!-- repo_spec&#45;&gt;coder -->
<g id="edge32" class="edge">
<title>repo_spec&#45;&gt;coder</title>
<path fill="none" stroke="#94a3b8" d="M814.02,-512.4C745.06,-508.36 615.09,-496.27 586.78,-461.96 570.16,-441.81 572.99,-411.12 578.49,-388.48"/>
<polygon fill="#94a3b8" stroke="#94a3b8" points="580.78,-389.4 580.22,-382 576.05,-388.14 580.78,-389.4"/>
<text xml:space="preserve" text-anchor="middle" x="608.53" y="-453.41" font-family="Inter,Helvetica,sans-serif" font-size="9.00">Grounding</text>
</g>
<!-- skill_registry -->
<g id="node2" class="node">
<title>skill_registry</title>
<polygon fill="#fef08a" stroke="black" stroke-width="0" points="1029.31,-538.11 1026.31,-542.11 1005.31,-542.11 1002.31,-538.11 929.26,-538.11 929.26,-492.51 1029.31,-492.51 1029.31,-538.11"/>
<text xml:space="preserve" text-anchor="middle" x="979.28" y="-516.86" font-family="Inter,Helvetica,sans-serif" font-size="11.00">Skill Registry</text>
<text xml:space="preserve" text-anchor="middle" x="979.28" y="-504.86" font-family="Inter,Helvetica,sans-serif" font-size="11.00">(.agents/skills/)</text>
</g>
<!-- refine_skill -->
<g id="node4" class="node">
<title>refine_skill</title>
<path fill="#e9d5ff" stroke="black" stroke-width="0" d="M1629.18,-380.76C1629.18,-380.76 1567.38,-380.76 1567.38,-380.76 1561.38,-380.76 1555.38,-374.76 1555.38,-368.76 1555.38,-368.76 1555.38,-347.16 1555.38,-347.16 1555.38,-341.16 1561.38,-335.16 1567.38,-335.16 1567.38,-335.16 1629.18,-335.16 1629.18,-335.16 1635.18,-335.16 1641.18,-341.16 1641.18,-347.16 1641.18,-347.16 1641.18,-368.76 1641.18,-368.76 1641.18,-374.76 1635.18,-380.76 1629.18,-380.76"/>
<text xml:space="preserve" text-anchor="middle" x="1598.28" y="-359.51" font-family="Inter,Helvetica,sans-serif" font-size="11.00">Skill:</text>
<text xml:space="preserve" text-anchor="middle" x="1598.28" y="-347.51" font-family="Inter,Helvetica,sans-serif" font-size="11.00">refine&#45;intent</text>
</g>
<!-- skill_registry&#45;&gt;refine_skill -->
<g id="edge26" class="edge">
<title>skill_registry&#45;&gt;refine_skill</title>
<path fill="none" stroke="#94a3b8" stroke-dasharray="1,5" d="M1029.03,-513.66C1151.06,-511.22 1461.46,-499.58 1546.28,-444.21 1569.07,-429.33 1583.47,-400.64 1591.19,-380.67"/>
</g>
<!-- skill_ba -->
<g id="node9" class="node">
<title>skill_ba</title>
<path fill="#e9d5ff" stroke="black" stroke-width="0" d="M1519.68,-271.97C1519.68,-271.97 1430.88,-271.97 1430.88,-271.97 1424.88,-271.97 1418.88,-265.97 1418.88,-259.97 1418.88,-259.97 1418.88,-238.37 1418.88,-238.37 1418.88,-232.37 1424.88,-226.37 1430.88,-226.37 1430.88,-226.37 1519.68,-226.37 1519.68,-226.37 1525.68,-226.37 1531.68,-232.37 1531.68,-238.37 1531.68,-238.37 1531.68,-259.97 1531.68,-259.97 1531.68,-265.97 1525.68,-271.97 1519.68,-271.97"/>
<text xml:space="preserve" text-anchor="middle" x="1475.28" y="-250.72" font-family="Inter,Helvetica,sans-serif" font-size="11.00">Skill:</text>
<text xml:space="preserve" text-anchor="middle" x="1475.28" y="-238.72" font-family="Inter,Helvetica,sans-serif" font-size="11.00">generate&#45;ba&#45;view</text>
</g>
<!-- skill_registry&#45;&gt;skill_ba -->
<g id="edge27" class="edge">
<title>skill_registry&#45;&gt;skill_ba</title>
<path fill="none" stroke="#94a3b8" stroke-dasharray="1,5" d="M1029.17,-509.56C1088.08,-502.29 1187.62,-484.72 1263.28,-444.21 1347.95,-398.87 1425.16,-312 1458.25,-271.69"/>
</g>
<!-- sync_skill -->
<g id="node25" class="node">
<title>sync_skill</title>
<path fill="#e9d5ff" stroke="black" stroke-width="0" d="M88.68,-61.6C88.68,-61.6 35.88,-61.6 35.88,-61.6 29.88,-61.6 23.88,-55.6 23.88,-49.6 23.88,-49.6 23.88,-28 23.88,-28 23.88,-22 29.88,-16 35.88,-16 35.88,-16 88.68,-16 88.68,-16 94.68,-16 100.68,-22 100.68,-28 100.68,-28 100.68,-49.6 100.68,-49.6 100.68,-55.6 94.68,-61.6 88.68,-61.6"/>
<text xml:space="preserve" text-anchor="middle" x="62.28" y="-40.35" font-family="Inter,Helvetica,sans-serif" font-size="11.00">Skill:</text>
<text xml:space="preserve" text-anchor="middle" x="62.28" y="-28.35" font-family="Inter,Helvetica,sans-serif" font-size="11.00">spec&#45;sync</text>
</g>
<!-- skill_registry&#45;&gt;sync_skill -->
<g id="edge28" class="edge">
<title>skill_registry&#45;&gt;sync_skill</title>
<path fill="none" stroke="#94a3b8" stroke-dasharray="1,5" d="M949,-492.58C938.75,-486.22 926.93,-479.92 915.28,-475.96 828.86,-446.56 802.37,-458.05 711.28,-452.21 702.22,-451.62 63.9,-450.42 57.28,-444.21 -51.76,-341.84 24.11,-129.86 52.68,-61.53"/>
</g>
<!-- jira -->
<g id="node3" class="node">
<title>jira</title>
<polygon fill="#ffffff" stroke="black" stroke-width="0" points="1879.31,-686.01 1761.26,-686.01 1761.26,-640.41 1885.31,-640.41 1885.31,-680.01 1879.31,-686.01"/>
<polyline fill="none" stroke="black" stroke-width="0" points="1879.31,-686.01 1879.31,-680.01"/>
<polyline fill="none" stroke="black" stroke-width="0" points="1885.31,-680.01 1879.31,-680.01"/>
<text xml:space="preserve" text-anchor="middle" x="1823.28" y="-664.76" font-family="Inter,Helvetica,sans-serif" font-size="11.00">Jira Ticket</text>
<text xml:space="preserve" text-anchor="middle" x="1823.28" y="-652.76" font-family="Inter,Helvetica,sans-serif" font-size="11.00">(Raw Requirement)</text>
</g>
<!-- jira&#45;&gt;intent_agent -->
<g id="edge1" class="edge">
<title>jira&#45;&gt;intent_agent</title>
<path fill="none" stroke="#64748b" d="M1798.2,-640.68C1768.06,-614.82 1717.49,-571.41 1684.76,-543.33"/>
<polygon fill="#64748b" stroke="#64748b" points="1686.52,-541.61 1679.62,-538.91 1683.33,-545.33 1686.52,-541.61"/>
</g>
<!-- intent_agent&#45;&gt;refine_skill -->
<g id="edge2" class="edge">
<title>intent_agent&#45;&gt;refine_skill</title>
<path fill="none" stroke="#64748b" stroke-dasharray="5,2" d="M1642.9,-484.98C1632.14,-454.6 1615.58,-407.83 1605.95,-380.63"/>
<polygon fill="#64748b" stroke="#64748b" points="1640.48,-485.5 1645.13,-491.28 1645.1,-483.86 1640.48,-485.5"/>
</g>
<!-- po -->
<g id="node6" class="node">
<title>po</title>
<ellipse fill="#fbcfe8" stroke="black" stroke-width="0" cx="1907.28" cy="-357.96" rx="71.81" ry="23.76"/>
<text xml:space="preserve" text-anchor="middle" x="1907.28" y="-353.51" font-family="Inter,Helvetica,sans-serif" font-size="11.00">Product Owner</text>
</g>
<!-- intent_agent&#45;&gt;po -->
<g id="edge3" class="edge">
<title>intent_agent&#45;&gt;po</title>
<path fill="none" stroke="#64748b" stroke-dasharray="1,5" d="M1700.24,-500.17C1735.33,-488.35 1783.55,-469.37 1821.28,-444.21 1845.17,-428.28 1868.04,-405.09 1884.19,-386.91"/>
<polygon fill="#64748b" stroke="#64748b" points="1885.63,-388.98 1888.4,-382.1 1881.95,-385.75 1885.63,-388.98"/>
<text xml:space="preserve" text-anchor="middle" x="1837.18" y="-453.41" font-family="Inter,Helvetica,sans-serif" font-size="9.00">Flags Ambiguity</text>
</g>
<!-- refined_intent -->
<g id="node7" class="node">
<title>refined_intent</title>
<polygon fill="#ffffff" stroke="black" stroke-width="0" points="1800.68,-380.76 1669.88,-380.76 1669.88,-335.16 1806.68,-335.16 1806.68,-374.76 1800.68,-380.76"/>
<polyline fill="none" stroke="black" stroke-width="0" points="1800.68,-380.76 1800.68,-374.76"/>
<polyline fill="none" stroke="black" stroke-width="0" points="1806.68,-374.76 1800.68,-374.76"/>
<text xml:space="preserve" text-anchor="middle" x="1738.28" y="-359.51" font-family="Inter,Helvetica,sans-serif" font-size="11.00">Refined Intent JSON</text>
<text xml:space="preserve" text-anchor="middle" x="1738.28" y="-347.51" font-family="Inter,Helvetica,sans-serif" font-size="11.00">(Pure Business Rules)</text>
</g>
<!-- intent_agent&#45;&gt;refined_intent -->
<g id="edge5" class="edge">
<title>intent_agent&#45;&gt;refined_intent</title>
<path fill="none" stroke="#64748b" d="M1665.1,-492.71C1680.03,-465.42 1705.77,-418.37 1722.41,-387.98"/>
<polygon fill="#64748b" stroke="#64748b" points="1724.49,-389.27 1725.7,-381.96 1720.19,-386.92 1724.49,-389.27"/>
<text xml:space="preserve" text-anchor="middle" x="1701.42" y="-453.41" font-family="Inter,Helvetica,sans-serif" font-size="9.00">Outputs</text>
</g>
<!-- po&#45;&gt;jira -->
<g id="edge4" class="edge">
<title>po&#45;&gt;jira</title>
<path fill="none" stroke="#64748b" stroke-dasharray="1,5" d="M1901.04,-381.49C1886.07,-435.54 1848.12,-572.54 1831.4,-632.89"/>
<polygon fill="#64748b" stroke="#64748b" points="1829.1,-632.02 1829.59,-639.42 1833.82,-633.33 1829.1,-632.02"/>
<text xml:space="preserve" text-anchor="middle" x="1890.51" y="-511.63" font-family="Inter,Helvetica,sans-serif" font-size="9.00">Clarifies</text>
</g>
<!-- refined_intent&#45;&gt;spec_writer -->
<g id="edge29" class="edge">
<title>refined_intent&#45;&gt;spec_writer</title>
<path fill="none" stroke="#64748b" d="M1722.48,-380.4C1707.61,-399.38 1683.47,-425.22 1655.28,-436.44 1583.63,-464.94 1381.28,-461.27 1308.28,-436.44 1278.95,-426.46 1251.47,-404.27 1232.44,-386.02"/>
<polygon fill="#64748b" stroke="#64748b" points="1234.61,-384.71 1227.89,-381.56 1231.18,-388.21 1234.61,-384.71"/>
<text xml:space="preserve" text-anchor="middle" x="1397.28" y="-453.41" font-family="Inter,Helvetica,sans-serif" font-size="9.00">Input</text>
</g>
<!-- spec_writer&#45;&gt;skill_ba -->
<g id="edge9" class="edge">
<title>spec_writer&#45;&gt;skill_ba</title>
<path fill="none" stroke="#64748b" stroke-dasharray="5,2" d="M1242.38,-330.62C1261.22,-317.94 1285.13,-303.46 1308.28,-293.97 1348.78,-277.36 1362,-283.29 1404.28,-271.97 1409.14,-270.67 1414.16,-269.26 1419.19,-267.8"/>
<polygon fill="#64748b" stroke="#64748b" points="1241.33,-328.37 1236.93,-334.34 1244.09,-332.41 1241.33,-328.37"/>
</g>
<!-- skill_qa -->
<g id="node10" class="node">
<title>skill_qa</title>
<path fill="#e9d5ff" stroke="black" stroke-width="0" d="M965.68,-271.97C965.68,-271.97 876.88,-271.97 876.88,-271.97 870.88,-271.97 864.88,-265.97 864.88,-259.97 864.88,-259.97 864.88,-238.37 864.88,-238.37 864.88,-232.37 870.88,-226.37 876.88,-226.37 876.88,-226.37 965.68,-226.37 965.68,-226.37 971.68,-226.37 977.68,-232.37 977.68,-238.37 977.68,-238.37 977.68,-259.97 977.68,-259.97 977.68,-265.97 971.68,-271.97 965.68,-271.97"/>
<text xml:space="preserve" text-anchor="middle" x="921.28" y="-250.72" font-family="Inter,Helvetica,sans-serif" font-size="11.00">Skill:</text>
<text xml:space="preserve" text-anchor="middle" x="921.28" y="-238.72" font-family="Inter,Helvetica,sans-serif" font-size="11.00">generate&#45;qa&#45;view</text>
</g>
<!-- spec_writer&#45;&gt;skill_qa -->
<g id="edge10" class="edge">
<title>spec_writer&#45;&gt;skill_qa</title>
<path fill="none" stroke="#64748b" stroke-dasharray="5,2" d="M1155.82,-338.05C1105.83,-319.32 1029.42,-290.69 977.51,-271.24"/>
<polygon fill="#64748b" stroke="#64748b" points="1154.78,-340.28 1162.2,-340.44 1156.5,-335.69 1154.78,-340.28"/>
</g>
<!-- skill_dev -->
<g id="node11" class="node">
<title>skill_dev</title>
<path fill="#e9d5ff" stroke="black" stroke-width="0" d="M1112.31,-271.97C1112.31,-271.97 1018.26,-271.97 1018.26,-271.97 1012.26,-271.97 1006.26,-265.97 1006.26,-259.97 1006.26,-259.97 1006.26,-238.37 1006.26,-238.37 1006.26,-232.37 1012.26,-226.37 1018.26,-226.37 1018.26,-226.37 1112.31,-226.37 1112.31,-226.37 1118.31,-226.37 1124.31,-232.37 1124.31,-238.37 1124.31,-238.37 1124.31,-259.97 1124.31,-259.97 1124.31,-265.97 1118.31,-271.97 1112.31,-271.97"/>
<text xml:space="preserve" text-anchor="middle" x="1065.28" y="-250.72" font-family="Inter,Helvetica,sans-serif" font-size="11.00">Skill:</text>
<text xml:space="preserve" text-anchor="middle" x="1065.28" y="-238.72" font-family="Inter,Helvetica,sans-serif" font-size="11.00">generate&#45;dev&#45;view</text>
</g>
<!-- spec_writer&#45;&gt;skill_dev -->
<g id="edge11" class="edge">
<title>spec_writer&#45;&gt;skill_dev</title>
<path fill="none" stroke="#64748b" stroke-dasharray="5,2" d="M1171.22,-330.41C1147.34,-312.32 1116.12,-288.67 1093.77,-271.75"/>
<polygon fill="#64748b" stroke="#64748b" points="1169.48,-332.16 1176.54,-334.44 1172.44,-328.26 1169.48,-332.16"/>
</g>
<!-- ba_view -->
<g id="node12" class="node">
<title>ba_view</title>
<polygon fill="#ffffff" stroke="black" stroke-width="0" points="1253.68,-271.97 1152.88,-271.97 1152.88,-226.37 1259.68,-226.37 1259.68,-265.97 1253.68,-271.97"/>
<polyline fill="none" stroke="black" stroke-width="0" points="1253.68,-271.97 1253.68,-265.97"/>
<polyline fill="none" stroke="black" stroke-width="0" points="1259.68,-265.97 1253.68,-265.97"/>
<text xml:space="preserve" text-anchor="middle" x="1206.28" y="-250.72" font-family="Inter,Helvetica,sans-serif" font-size="11.00">BA View</text>
<text xml:space="preserve" text-anchor="middle" x="1206.28" y="-238.72" font-family="Inter,Helvetica,sans-serif" font-size="11.00">(Mermaid/Logic)</text>
</g>
<!-- spec_writer&#45;&gt;ba_view -->
<g id="edge6" class="edge">
<title>spec_writer&#45;&gt;ba_view</title>
<path fill="none" stroke="#64748b" d="M1206.28,-335.35C1206.28,-319.43 1206.28,-297.58 1206.28,-279.99"/>
<polygon fill="#64748b" stroke="#64748b" points="1208.73,-280.26 1206.28,-273.26 1203.83,-280.26 1208.73,-280.26"/>
</g>
<!-- qa_view -->
<g id="node13" class="node">
<title>qa_view</title>
<polygon fill="#ffffff" stroke="black" stroke-width="0" points="1383.68,-271.97 1288.88,-271.97 1288.88,-226.37 1389.68,-226.37 1389.68,-265.97 1383.68,-271.97"/>
<polyline fill="none" stroke="black" stroke-width="0" points="1383.68,-271.97 1383.68,-265.97"/>
<polyline fill="none" stroke="black" stroke-width="0" points="1389.68,-265.97 1383.68,-265.97"/>
<text xml:space="preserve" text-anchor="middle" x="1339.28" y="-250.72" font-family="Inter,Helvetica,sans-serif" font-size="11.00">QA View</text>
<text xml:space="preserve" text-anchor="middle" x="1339.28" y="-238.72" font-family="Inter,Helvetica,sans-serif" font-size="11.00">(Gherkin BDD)</text>
</g>
<!-- spec_writer&#45;&gt;qa_view -->
<g id="edge7" class="edge">
<title>spec_writer&#45;&gt;qa_view</title>
<path fill="none" stroke="#64748b" d="M1230.53,-335.17C1244.54,-322.8 1262.63,-307.19 1279.28,-293.97 1286.47,-288.26 1294.3,-282.33 1301.86,-276.76"/>
<polygon fill="#64748b" stroke="#64748b" points="1303.28,-278.76 1307.48,-272.65 1300.39,-274.8 1303.28,-278.76"/>
</g>
<!-- dev_view -->
<g id="node14" class="node">
<title>dev_view</title>
<polygon fill="#ffffff" stroke="black" stroke-width="0" points="830.18,-271.97 756.38,-271.97 756.38,-226.37 836.18,-226.37 836.18,-265.97 830.18,-271.97"/>
<polyline fill="none" stroke="black" stroke-width="0" points="830.18,-271.97 830.18,-265.97"/>
<polyline fill="none" stroke="black" stroke-width="0" points="836.18,-265.97 830.18,-265.97"/>
<text xml:space="preserve" text-anchor="middle" x="796.28" y="-250.72" font-family="Inter,Helvetica,sans-serif" font-size="11.00">Dev View</text>
<text xml:space="preserve" text-anchor="middle" x="796.28" y="-238.72" font-family="Inter,Helvetica,sans-serif" font-size="11.00">(API/Files)</text>
</g>
<!-- spec_writer&#45;&gt;dev_view -->
<g id="edge8" class="edge">
<title>spec_writer&#45;&gt;dev_view</title>
<path fill="none" stroke="#64748b" d="M1163.52,-348.9C1096.11,-335.72 961.36,-307.43 850.28,-271.97 848.26,-271.32 846.2,-270.64 844.14,-269.92"/>
<polygon fill="#64748b" stroke="#64748b" points="844.98,-267.62 837.57,-267.55 843.32,-272.23 844.98,-267.62"/>
</g>
<!-- ba_human -->
<g id="node15" class="node">
<title>ba_human</title>
<ellipse fill="#fbcfe8" stroke="black" stroke-width="0" cx="1097.28" cy="-148.86" rx="58.02" ry="23.76"/>
<text xml:space="preserve" text-anchor="middle" x="1097.28" y="-144.41" font-family="Inter,Helvetica,sans-serif" font-size="11.00">BA Review</text>
</g>
<!-- ba_view&#45;&gt;ba_human -->
<g id="edge12" class="edge">
<title>ba_view&#45;&gt;ba_human</title>
<path fill="none" stroke="#64748b" d="M1182.36,-226.59C1165.84,-211.69 1143.78,-191.79 1126.26,-175.99"/>
<polygon fill="#64748b" stroke="#64748b" points="1127.99,-174.26 1121.15,-171.39 1124.71,-177.9 1127.99,-174.26"/>
</g>
<!-- qa_human -->
<g id="node16" class="node">
<title>qa_human</title>
<ellipse fill="#fbcfe8" stroke="black" stroke-width="0" cx="1291.28" cy="-148.86" rx="58.55" ry="23.76"/>
<text xml:space="preserve" text-anchor="middle" x="1291.28" y="-144.41" font-family="Inter,Helvetica,sans-serif" font-size="11.00">QA Review</text>
</g>
<!-- qa_view&#45;&gt;qa_human -->
<g id="edge13" class="edge">
<title>qa_view&#45;&gt;qa_human</title>
<path fill="none" stroke="#64748b" d="M1328.87,-226.84C1322.15,-213.08 1313.32,-195 1305.91,-179.81"/>
<polygon fill="#64748b" stroke="#64748b" points="1308.11,-178.75 1302.84,-173.53 1303.71,-180.9 1308.11,-178.75"/>
</g>
<!-- dev_human -->
<g id="node17" class="node">
<title>dev_human</title>
<ellipse fill="#fbcfe8" stroke="black" stroke-width="0" cx="835.28" cy="-148.86" rx="79.23" ry="23.76"/>
<text xml:space="preserve" text-anchor="middle" x="835.28" y="-144.41" font-family="Inter,Helvetica,sans-serif" font-size="11.00">Dev Arch Review</text>
</g>
<!-- dev_view&#45;&gt;dev_human -->
<g id="edge14" class="edge">
<title>dev_view&#45;&gt;dev_human</title>
<path fill="none" stroke="#64748b" d="M805.35,-226.37C808.24,-219.36 811.42,-211.55 814.28,-204.37 817.4,-196.52 820.72,-188.02 823.76,-180.11"/>
<polygon fill="#64748b" stroke="#64748b" points="825.94,-181.27 826.17,-173.86 821.37,-179.51 825.94,-181.27"/>
</g>
<!-- delta_spec -->
<g id="node18" class="node">
<title>delta_spec</title>
<polygon fill="#bbf7d0" stroke="black" stroke-width="0" points="895.06,-61.6 769.51,-61.6 769.51,-16 901.06,-16 901.06,-55.6 895.06,-61.6"/>
<polyline fill="none" stroke="black" stroke-width="0" points="895.06,-61.6 895.06,-55.6"/>
<polyline fill="none" stroke="black" stroke-width="0" points="901.06,-55.6 895.06,-55.6"/>
<text xml:space="preserve" text-anchor="middle" x="835.28" y="-40.35" font-family="Inter,Helvetica,sans-serif" font-size="11.00">Approved Delta Spec</text>
<text xml:space="preserve" text-anchor="middle" x="835.28" y="-28.35" font-family="Inter,Helvetica,sans-serif" font-size="11.00">(feature_spec.md)</text>
</g>
<!-- ba_human&#45;&gt;delta_spec -->
<g id="edge15" class="edge">
<title>ba_human&#45;&gt;delta_spec</title>
<path fill="none" stroke="#64748b" d="M1057.77,-131.56C1014.76,-113.82 945.46,-85.24 895.62,-64.69"/>
<polygon fill="#64748b" stroke="#64748b" points="896.6,-62.44 889.2,-62.04 894.73,-66.97 896.6,-62.44"/>
<text xml:space="preserve" text-anchor="middle" x="1001.47" y="-89.67" font-family="Inter,Helvetica,sans-serif" font-size="9.00">Approves</text>
</g>
<!-- qa_human&#45;&gt;delta_spec -->
<g id="edge16" class="edge">
<title>qa_human&#45;&gt;delta_spec</title>
<path fill="none" stroke="#64748b" d="M1242.43,-135.79C1220.39,-130.35 1194.03,-123.86 1170.28,-118.06 1107.2,-102.64 1091.5,-98.44 1028.28,-83.6 988.94,-74.36 945.02,-64.37 909.02,-56.26"/>
<polygon fill="#64748b" stroke="#64748b" points="909.84,-53.94 902.47,-54.79 908.76,-58.72 909.84,-53.94"/>
<text xml:space="preserve" text-anchor="middle" x="1128.34" y="-89.67" font-family="Inter,Helvetica,sans-serif" font-size="9.00">Approves</text>
</g>
<!-- dev_human&#45;&gt;delta_spec -->
<g id="edge17" class="edge">
<title>dev_human&#45;&gt;delta_spec</title>
<path fill="none" stroke="#64748b" d="M835.28,-125.21C835.28,-109.04 835.28,-87.13 835.28,-69.56"/>
<polygon fill="#64748b" stroke="#64748b" points="837.73,-69.83 835.28,-62.83 832.83,-69.83 837.73,-69.83"/>
<text xml:space="preserve" text-anchor="middle" x="854.78" y="-89.67" font-family="Inter,Helvetica,sans-serif" font-size="9.00">Approves</text>
</g>
<!-- delta_spec&#45;&gt;coder -->
<g id="edge31" class="edge">
<title>delta_spec&#45;&gt;coder</title>
<path fill="none" stroke="#64748b" d="M801.47,-61.34C781.65,-75.43 757.41,-95.39 741.28,-118.06 698.9,-177.62 724.6,-211.66 683.28,-271.97 667.32,-295.26 643.68,-316.44 623.97,-331.84"/>
<polygon fill="#64748b" stroke="#64748b" points="622.72,-329.71 618.65,-335.91 625.7,-333.6 622.72,-329.71"/>
<text xml:space="preserve" text-anchor="middle" x="759.13" y="-195.82" font-family="Inter,Helvetica,sans-serif" font-size="9.00">Input (QA + Dev Views)</text>
</g>
<!-- fw_skills -->
<g id="node20" class="node">
<title>fw_skills</title>
<path fill="#e9d5ff" stroke="black" stroke-width="0" d="M466.93,-271.97C466.93,-271.97 379.63,-271.97 379.63,-271.97 373.63,-271.97 367.63,-265.97 367.63,-259.97 367.63,-259.97 367.63,-238.37 367.63,-238.37 367.63,-232.37 373.63,-226.37 379.63,-226.37 379.63,-226.37 466.93,-226.37 466.93,-226.37 472.93,-226.37 478.93,-232.37 478.93,-238.37 478.93,-238.37 478.93,-259.97 478.93,-259.97 478.93,-265.97 472.93,-271.97 466.93,-271.97"/>
<text xml:space="preserve" text-anchor="middle" x="423.28" y="-250.72" font-family="Inter,Helvetica,sans-serif" font-size="11.00">Framework Skills</text>
<text xml:space="preserve" text-anchor="middle" x="423.28" y="-238.72" font-family="Inter,Helvetica,sans-serif" font-size="11.00">(e.g., react&#45;dev)</text>
</g>
<!-- coder&#45;&gt;fw_skills -->
<g id="edge18" class="edge">
<title>coder&#45;&gt;fw_skills</title>
<path fill="none" stroke="#64748b" stroke-dasharray="5,2" d="M552.2,-333.61C523.85,-315.26 484.65,-289.89 456.94,-271.95"/>
<polygon fill="#64748b" stroke="#64748b" points="550.68,-335.55 557.89,-337.29 553.35,-331.43 550.68,-335.55"/>
</g>
<!-- tdd -->
<g id="node21" class="node">
<title>tdd</title>
<path fill="#ffffff" stroke="black" stroke-width="0" d="M656.68,-271.97C656.68,-271.97 519.88,-271.97 519.88,-271.97 513.88,-271.97 507.88,-265.97 507.88,-259.97 507.88,-259.97 507.88,-238.37 507.88,-238.37 507.88,-232.37 513.88,-226.37 519.88,-226.37 519.88,-226.37 656.68,-226.37 656.68,-226.37 662.68,-226.37 668.68,-232.37 668.68,-238.37 668.68,-238.37 668.68,-259.97 668.68,-259.97 668.68,-265.97 662.68,-271.97 656.68,-271.97"/>
<text xml:space="preserve" text-anchor="middle" x="588.28" y="-250.72" font-family="Inter,Helvetica,sans-serif" font-size="11.00">TDD Loop</text>
<text xml:space="preserve" text-anchor="middle" x="588.28" y="-238.72" font-family="Inter,Helvetica,sans-serif" font-size="11.00">(Red &#45;&gt; Green &#45;&gt; Refactor)</text>
</g>
<!-- coder&#45;&gt;tdd -->
<g id="edge19" class="edge">
<title>coder&#45;&gt;tdd</title>
<path fill="none" stroke="#64748b" d="M588.28,-335.35C588.28,-319.43 588.28,-297.58 588.28,-279.99"/>
<polygon fill="#64748b" stroke="#64748b" points="590.73,-280.26 588.28,-273.26 585.83,-280.26 590.73,-280.26"/>
</g>
<!-- pr -->
<g id="node22" class="node">
<title>pr</title>
<polygon fill="#ffffff" stroke="black" stroke-width="0" points="514.93,-171.66 511.93,-175.66 490.93,-175.66 487.93,-171.66 409.63,-171.66 409.63,-126.06 514.93,-126.06 514.93,-171.66"/>
<text xml:space="preserve" text-anchor="middle" x="462.28" y="-150.41" font-family="Inter,Helvetica,sans-serif" font-size="11.00">Pull Request</text>
<text xml:space="preserve" text-anchor="middle" x="462.28" y="-138.41" font-family="Inter,Helvetica,sans-serif" font-size="11.00">(Working Code)</text>
</g>
<!-- tdd&#45;&gt;pr -->
<g id="edge20" class="edge">
<title>tdd&#45;&gt;pr</title>
<path fill="none" stroke="#64748b" d="M560.63,-226.59C541.76,-211.87 516.62,-192.26 496.49,-176.55"/>
<polygon fill="#64748b" stroke="#64748b" points="498.09,-174.69 491.06,-172.31 495.07,-178.55 498.09,-174.69"/>
</g>
<!-- human_edit -->
<g id="node23" class="node">
<title>human_edit</title>
<ellipse fill="#fbcfe8" stroke="black" stroke-width="0" cx="161.28" cy="-357.96" rx="89.84" ry="32.24"/>
<text xml:space="preserve" text-anchor="middle" x="161.28" y="-359.51" font-family="Inter,Helvetica,sans-serif" font-size="11.00">Dev Manual Edit</text>
<text xml:space="preserve" text-anchor="middle" x="161.28" y="-347.51" font-family="Inter,Helvetica,sans-serif" font-size="11.00">(Alters API/Schema)</text>
</g>
<!-- pr&#45;&gt;human_edit -->
<g id="edge33" class="edge">
<title>pr&#45;&gt;human_edit</title>
<path fill="none" stroke="#64748b" stroke-dasharray="1,5" d="M409.67,-161.36C366.66,-172.66 305.89,-193.12 261.28,-226.37 224.99,-253.42 195.3,-297.03 177.96,-326.33"/>
</g>
<!-- ci_hook -->
<g id="node24" class="node">
<title>ci_hook</title>
<path fill="#ffffff" stroke="black" stroke-width="0" d="M167.81,-267.17C167.81,-267.17 70.76,-267.17 70.76,-267.17 64.76,-267.17 58.76,-261.17 58.76,-255.17 58.76,-255.17 58.76,-243.17 58.76,-243.17 58.76,-237.17 64.76,-231.17 70.76,-231.17 70.76,-231.17 167.81,-231.17 167.81,-231.17 173.81,-231.17 179.81,-237.17 179.81,-243.17 179.81,-243.17 179.81,-255.17 179.81,-255.17 179.81,-261.17 173.81,-267.17 167.81,-267.17"/>
<text xml:space="preserve" text-anchor="middle" x="119.28" y="-244.72" font-family="Inter,Helvetica,sans-serif" font-size="11.00">Git Pre&#45;commit / CI</text>
</g>
<!-- human_edit&#45;&gt;ci_hook -->
<g id="edge21" class="edge">
<title>human_edit&#45;&gt;ci_hook</title>
<path fill="none" stroke="#64748b" d="M149.13,-326.07C142.7,-309.71 134.9,-289.89 128.89,-274.6"/>
<polygon fill="#64748b" stroke="#64748b" points="131.32,-274.09 126.48,-268.48 126.76,-275.89 131.32,-274.09"/>
<text xml:space="preserve" text-anchor="middle" x="157.16" y="-295.17" font-family="Inter,Helvetica,sans-serif" font-size="9.00">Triggers</text>
</g>
<!-- sync_agent -->
<g id="node26" class="node">
<title>sync_agent</title>
<path fill="#bae6fd" stroke="black" stroke-width="0" d="M145.93,-171.66C145.93,-171.66 88.63,-171.66 88.63,-171.66 82.63,-171.66 76.63,-165.66 76.63,-159.66 76.63,-159.66 76.63,-138.06 76.63,-138.06 76.63,-132.06 82.63,-126.06 88.63,-126.06 88.63,-126.06 145.93,-126.06 145.93,-126.06 151.93,-126.06 157.93,-132.06 157.93,-138.06 157.93,-138.06 157.93,-159.66 157.93,-159.66 157.93,-165.66 151.93,-171.66 145.93,-171.66"/>
<text xml:space="preserve" text-anchor="middle" x="117.28" y="-150.41" font-family="Inter,Helvetica,sans-serif" font-size="11.00">Spec&#45;Sync</text>
<text xml:space="preserve" text-anchor="middle" x="117.28" y="-138.41" font-family="Inter,Helvetica,sans-serif" font-size="11.00">Agent</text>
</g>
<!-- ci_hook&#45;&gt;sync_agent -->
<g id="edge22" class="edge">
<title>ci_hook&#45;&gt;sync_agent</title>
<path fill="none" stroke="#64748b" d="M118.94,-231.49C118.66,-217.4 118.24,-196.87 117.89,-179.92"/>
<polygon fill="#64748b" stroke="#64748b" points="120.34,-179.9 117.75,-172.96 115.44,-180 120.34,-179.9"/>
<text xml:space="preserve" text-anchor="middle" x="144.59" y="-195.82" font-family="Inter,Helvetica,sans-serif" font-size="9.00">Diff Detected</text>
</g>
<!-- sync_agent&#45;&gt;delta_spec -->
<g id="edge34" class="edge">
<title>sync_agent&#45;&gt;delta_spec</title>
<path fill="none" stroke="#ef4444" d="M157.68,-141.78C274.03,-124.27 611.1,-73.54 761.42,-50.92"/>
<polygon fill="#ef4444" stroke="#ef4444" points="761.68,-53.35 768.24,-49.89 760.95,-48.51 761.68,-53.35"/>
<text xml:space="preserve" text-anchor="middle" x="580.34" y="-94.55" font-family="Inter,Helvetica,sans-serif" font-size="9.00">Reverse&#45;Engineers</text>
<text xml:space="preserve" text-anchor="middle" x="580.34" y="-84.8" font-family="Inter,Helvetica,sans-serif" font-size="9.00">Updates</text>
</g>
<!-- sync_agent&#45;&gt;sync_skill -->
<g id="edge23" class="edge">
<title>sync_agent&#45;&gt;sync_skill</title>
<path fill="none" stroke="#64748b" stroke-dasharray="5,2" d="M91.26,-119.9C87.18,-114.59 83.32,-108.87 80.28,-103.1 73.42,-90.05 68.91,-74.08 66.11,-61.45"/>
<polygon fill="#64748b" stroke="#64748b" points="89.24,-121.31 95.55,-125.22 93.06,-118.23 89.24,-121.31"/>
</g>
<!-- harvest -->
<g id="node27" class="node">
<title>harvest</title>
<path fill="#ffffff" stroke="black" stroke-width="0" d="M240.93,-56.8C240.93,-56.8 141.63,-56.8 141.63,-56.8 135.63,-56.8 129.63,-50.8 129.63,-44.8 129.63,-44.8 129.63,-32.8 129.63,-32.8 129.63,-26.8 135.63,-20.8 141.63,-20.8 141.63,-20.8 240.93,-20.8 240.93,-20.8 246.93,-20.8 252.93,-26.8 252.93,-32.8 252.93,-32.8 252.93,-44.8 252.93,-44.8 252.93,-50.8 246.93,-56.8 240.93,-56.8"/>
<text xml:space="preserve" text-anchor="middle" x="191.28" y="-34.35" font-family="Inter,Helvetica,sans-serif" font-size="11.00">Knowledge Harvest</text>
</g>
<!-- sync_agent&#45;&gt;harvest -->
<g id="edge24" class="edge">
<title>sync_agent&#45;&gt;harvest</title>
<path fill="none" stroke="#64748b" d="M110.89,-126.21C108.29,-113.04 107.39,-96.35 114.78,-83.6 120.16,-74.32 128.34,-66.83 137.37,-60.86"/>
<polygon fill="#64748b" stroke="#64748b" points="138.41,-63.09 143.12,-57.36 135.86,-58.91 138.41,-63.09"/>
<text xml:space="preserve" text-anchor="middle" x="138.03" y="-89.67" font-family="Inter,Helvetica,sans-serif" font-size="9.00">PR Merged</text>
</g>
<!-- harvest&#45;&gt;repo_spec -->
<g id="edge35" class="edge">
<title>harvest&#45;&gt;repo_spec</title>
<path fill="none" stroke="#22c55e" d="M241.73,-56.65C255.18,-63.24 268.63,-72.05 278.28,-83.6 297.37,-106.46 297.28,-118.08 297.28,-147.86 297.28,-358.96 297.28,-358.96 297.28,-358.96 297.28,-404.05 314.27,-419.96 352.28,-444.21 426.9,-491.81 693.14,-507.82 806.06,-512.54"/>
<polygon fill="#22c55e" stroke="#22c55e" points="805.64,-514.98 812.73,-512.82 805.84,-510.08 805.64,-514.98"/>
<text xml:space="preserve" text-anchor="middle" x="317.91" y="-250.37" font-family="Inter,Helvetica,sans-serif" font-size="9.00">Appends</text>
<text xml:space="preserve" text-anchor="middle" x="317.91" y="-240.62" font-family="Inter,Helvetica,sans-serif" font-size="9.00">Learnings</text>
</g>
</g>
</svg>
